<svg width="42" height="42" viewBox="0 0 42 42" fill="none" xmlns="http://www.w3.org/2000/svg">
<path fill-rule="evenodd" clip-rule="evenodd" d="M21 42C9.40202 42 0 32.598 0 21C0 9.40202 9.40202 0 21 0C32.598 0 42 9.40202 42 21C42 32.598 32.598 42 21 42ZM21.6922 32.6835C28.5771 32.6806 34.1766 27.0797 34.1794 20.1963C34.1807 16.8598 32.883 13.7225 30.5254 11.3622C28.1678 9.00188 25.0326 7.70144 21.6921 7.7C14.8092 7.7 9.20743 13.3015 9.20469 20.1865C9.20376 22.3873 9.77877 24.5355 10.8715 26.4292L9.1 32.9L15.7197 31.1635C17.5436 32.1584 19.5971 32.6827 21.687 32.6835H21.6922Z" fill="#F2F2F2"/>
<path fill-rule="evenodd" clip-rule="evenodd" d="M16.0263 28.9028L12.0981 29.9333L13.1466 26.1033L12.8999 25.7106C11.8609 24.0582 11.3122 22.1483 11.313 20.1871C11.3153 14.4647 15.9713 9.80908 21.6962 9.80908C24.4684 9.81004 27.0744 10.891 29.0339 12.8528C30.9935 14.8146 32.072 17.4223 32.0709 20.1955C32.0686 25.9184 27.4127 30.5745 21.6922 30.5745H21.6879C19.8255 30.5738 17.9989 30.0734 16.4053 29.1278L16.0263 28.9028ZM27.9831 23.1657C27.9052 23.0355 27.6972 22.9575 27.3852 22.8012C27.0732 22.6451 25.5392 21.8903 25.2531 21.7861C24.9672 21.682 24.7591 21.63 24.5511 21.9423C24.3431 22.2546 23.7452 22.9575 23.5632 23.1657C23.3811 23.3739 23.1991 23.4 22.8872 23.2438C22.5752 23.0876 21.5698 22.7582 20.378 21.6951C19.4505 20.8678 18.8243 19.846 18.6423 19.5337C18.4603 19.2213 18.6229 19.0525 18.7791 18.8969C18.9195 18.7571 19.0911 18.5324 19.2471 18.3503C19.4031 18.1681 19.4551 18.0379 19.5591 17.8298C19.6631 17.6215 19.6111 17.4393 19.5331 17.2831C19.4551 17.1269 18.8311 15.5911 18.5711 14.9664C18.3178 14.358 18.0606 14.4404 17.8691 14.4308C17.6873 14.4217 17.4791 14.4197 17.2711 14.4197C17.0631 14.4197 16.7251 14.4978 16.4391 14.8102C16.1531 15.1226 15.347 15.8774 15.347 17.4131C15.347 18.9489 16.465 20.4326 16.6211 20.6408C16.7771 20.8491 18.8212 24.0006 21.9512 25.3521C22.6956 25.6736 23.2767 25.8656 23.7299 26.0093C24.4773 26.2469 25.1576 26.2134 25.6951 26.133C26.2946 26.0434 27.5411 25.3783 27.8012 24.6494C28.0611 23.9205 28.0611 23.2958 27.9831 23.1657Z" fill="#F2F2F2"/>
</svg>
