<svg width="145" height="145" viewBox="0 0 145 145" fill="none" xmlns="http://www.w3.org/2000/svg">
<path d="M29.0315 70.0301H88.3315L70.1815 91.8282C69.7613 92.3337 69.4447 92.9171 69.25 93.5449C69.0552 94.1728 68.986 94.8329 69.0464 95.4875C69.1683 96.8095 69.8104 98.0289 70.8315 98.8775C71.8526 99.7262 73.169 100.134 74.4911 100.013C75.8132 99.8906 77.0328 99.2486 77.8815 98.2276L102.881 68.2303C103.05 67.9917 103.2 67.741 103.331 67.4803C103.331 67.2304 103.581 67.0804 103.681 66.8304C103.908 66.2572 104.027 65.647 104.031 65.0306C104.027 64.4142 103.908 63.804 103.681 63.2307C103.681 62.9808 103.431 62.8308 103.331 62.5808C103.2 62.3201 103.05 62.0695 102.881 61.8309L77.8815 31.8335C77.4114 31.2692 76.8227 30.8153 76.1573 30.5042C75.4918 30.1932 74.766 30.0325 74.0315 30.0337C72.8632 30.0314 71.7311 30.4383 70.8315 31.1836C70.3252 31.6033 69.9067 32.1188 69.5999 32.7004C69.2932 33.2821 69.1042 33.9186 69.0438 34.5734C68.9834 35.2283 69.0528 35.8886 69.2481 36.5165C69.4433 37.1445 69.7605 37.7278 70.1815 38.233L88.3315 60.031H29.0315C27.7054 60.031 26.4336 60.5578 25.496 61.4954C24.5583 62.4329 24.0315 63.7046 24.0315 65.0306C24.0315 66.3565 24.5583 67.6282 25.496 68.5658C26.4336 69.5034 27.7054 70.0301 29.0315 70.0301Z" fill="#0FB7C0"/>
</svg>
